<svg width="148" height="162" viewBox="0 0 148 162" fill="none" xmlns="http://www.w3.org/2000/svg" xmlns:xlink="http://www.w3.org/1999/xlink">
<path d="M73.545,0C53.936,0 35.113,8.539 21.259,23.724C7.391,38.915 -0.402,59.517 -0.406,81C-0.406,102.474 7.393,123.091 21.259,138.276C35.113,153.461 53.936,162 73.545,162C93.154,162 111.977,153.461 125.831,138.276C139.697,123.091 147.497,102.474 147.497,81C147.497,59.526 139.697,38.909 125.831,23.724C111.977,8.539 93.154,0 73.545,0Z" fill="url(#pf_0_102_4)"/>
<path d="M33.068,80.144C54.63,69.857 69.004,63.075 76.191,59.798C96.736,50.441 101,48.816 103.785,48.761C104.397,48.751 105.76,48.916 106.65,49.704C107.39,50.369 107.598,51.267 107.702,51.898C107.794,52.529 107.921,53.965 107.817,55.086C106.708,67.894 101.89,98.976 99.44,113.321C98.412,119.391 96.366,121.427 94.39,121.625C90.092,122.058 86.833,118.517 82.674,115.531C76.168,110.857 72.494,107.949 66.173,103.389C58.871,98.119 63.608,95.222 67.768,90.488C68.854,89.249 87.781,70.398 88.139,68.688C88.185,68.474 88.232,67.677 87.793,67.257C87.365,66.835 86.729,66.979 86.267,67.093C85.609,67.255 75.221,74.783 55.069,89.676C52.122,91.896 49.453,92.978 47.05,92.921C44.415,92.859 39.331,91.286 35.553,89.942C30.931,88.292 27.245,87.42 27.568,84.62C27.73,83.162 29.567,81.669 33.068,80.144Z" fill="#FFFFFF"/>
<defs>
<linearGradient id="pf_0_102_4" x1="7394.756" y1="0" x2="7394.756" y2="16200" gradientUnits="userSpaceOnUse">
<stop stop-color="#2AABEE"/>
<stop offset="1" stop-color="#229ED9"/>
</linearGradient>
</defs>
</svg>
